<svg width="128" height="128" viewBox="0 0 128 128" fill="none" xmlns="http://www.w3.org/2000/svg">
<path fill-rule="evenodd" clip-rule="evenodd" d="M19.9532 73.8874L25.5762 52.902C31.3331 31.417 53.417 18.6669 74.902 24.4238C96.387 30.1806 109.137 52.2645 103.38 73.7495L96.841 98.1542C93.7689 103.561 87.3341 106.436 81.0468 104.751C76.3776 103.5 72.8952 100.031 71.4296 95.7807C67.9506 101.532 60.9747 104.549 54.1557 102.722C47.3366 100.895 42.8038 94.7943 42.6667 88.0737C39.2725 91.0215 34.5219 92.2849 29.8527 91.0338C22.3842 89.0326 17.952 81.3559 19.9532 73.8874ZM64.7604 41.8942C63.6884 45.8952 59.5758 48.2696 55.5748 47.1975C51.5738 46.1255 49.1995 42.0129 50.2715 38.0119C51.3436 34.0109 55.4561 31.6366 59.4571 32.7086C63.4581 33.7807 65.8325 37.8932 64.7604 41.8942ZM87.9427 48.1059C86.8706 52.1069 82.7581 54.4812 78.7571 53.4092C74.7561 52.3371 72.3817 48.2246 73.4538 44.2236C74.5258 40.2226 78.6384 37.8482 82.6394 38.9203C86.6403 39.9924 89.0147 44.1049 87.9427 48.1059ZM53.7763 55.8416C54.8028 52.0107 59.2808 50.3112 62.5905 52.4965L64.5264 53.7747C65.7547 54.5857 67.2129 54.9764 68.6821 54.8882L70.9978 54.7492C74.9567 54.5116 77.985 58.2223 76.9585 62.0533C76.4925 63.7927 75.0837 65.1194 73.3195 65.4804L73.1596 65.5131C66.798 66.815 60.1947 65.0456 55.3363 60.7374L55.2142 60.6291C53.8669 59.4344 53.3102 57.581 53.7763 55.8416Z" fill="white" fill-opacity="0.1"/>
</svg>
